<?xml version="1.0" encoding="UTF-8"?>
<svg xmlns="http://www.w3.org/2000/svg" version="1.1" viewBox="0 0 500 500">
  <!-- Generator: Adobe Illustrator 29.5.1, SVG Export Plug-In . SVG Version: 2.1.0 Build 141)  -->
  <defs>
    <style>
      .st0 {
        fill: #fff;
      }
    </style>
  </defs>
  <g id="Layer_3">
    <rect x="0" y="0" width="500" height="500" rx="74.96" ry="74.96"/>
  </g>
  <g id="Layer_2">
    <g id="ES2xCv">
      <g>
        <path class="st0" d="M226.4,304.67c-8.95-6.18-28.42-27.41-33.82-36.78-5.2-9.01,1.25-14.4-.12-23.52-12.65-1.84-45.87,2.86-58.6,0s-8.84-19.75-3.79-25.72c10.86-12.82,26.38-26.22,38.44-38.32,7.05-7.07,10.08-14.12,21.06-15.96,13.08-2.19,27.65.15,40.88-1.62,3.79-.51,5.85-2.79,8.3-5.41,5.88-6.3,11.2-14.17,17.12-20.58,39.62-42.98,90.49-70.06,150.79-65.78,11.79.84,18.68,3.38,21.28,15.73,8.78,41.7-10.71,98.33-37.4,130.58-14.47,17.48-31.59,29.31-47.28,44.56-10.75,10.45-4.38,31.89-6.22,45.87-1.56,11.91-18.39,23.62-26.68,31.58-9.86,9.47-22.72,24.11-33.23,31.88-10.07,7.44-20,1.66-21.4-10.13-1.36-11.42.59-24.55-.16-36.16l-1.4-16.76c-11.09-3.87-18.41,3-27.74-3.44ZM331.45,127.35c-44.4,5.02-38.29,75.79,7.34,73.14,48.13-2.8,41.92-78.71-7.34-73.14Z"/>
        <path class="st0" d="M144.98,274c5.8-.99,12.17.46,14.39,6.53,3.16,8.64-8.09,12.71-13.84,17.33-12.21,9.82-13.24,19.08-21.33,31.44-8.61,13.15-26.57,32.8-43.81,30.9-6.31-.69-11.79-5.59-10.15-12.21,1.9-7.71,8.8-6.21,14.87-9.12,6.66-3.19,17.51-14.68,21.56-20.94,2.93-4.54,3.68-9.51,6.17-14.39,5.37-10.56,20.01-27.46,32.15-29.54Z"/>
        <path class="st0" d="M217.64,339.79c9.47-1.86,7.94,12.26,6.3,17.98-8.92,31.07-42.31,29.14-54.91,54.75-2.67,5.42-3.9,15.86-11.24,16.88-8.11,1.13-11.9-10.19-11.17-16.69,1.11-9.92,15.34-26.96,23.28-32.92,11.68-8.78,25.7-12,34.78-24.16,3.2-4.28,7.64-14.8,12.96-15.85Z"/>
        <path class="st0" d="M184.77,302.82c9.9-.97,13.46,6.2,12.49,15.23-.72,6.69-12.21,21.86-17.46,26.4-7.06,6.1-27.82,18.24-31.42,3.28-4.13-17.16,19.71-43.29,36.39-44.92Z"/>
        <path class="st0" d="M116.18,382.28c5.96-1.36,10.66,4.15,8.57,9.95-1.45,4.04-11.32,15.4-15,17.9-7.77,5.27-16.68-.64-13.4-9.29,1.09-2.89,11.31-12.14,14.22-14.57,1.24-1.03,4.29-3.69,5.61-3.99Z"/>
        <path d="M331.45,127.35c49.26-5.57,55.47,70.33,7.34,73.14-45.63,2.66-51.74-68.11-7.34-73.14Z"/>
      </g>
    </g>
  </g>
</svg>